<svg xmlns="http://www.w3.org/2000/svg" viewBox="0 0 400 400" width="400" height="400">
  <rect width="400" height="400" fill="white" />
  <path d="M 200.00 20.00 A 180 180 0 0 1 217.25 20.83 L 206.90 128.33 A 72 72 0 0 0 200.00 128.00 Z" fill="hsl(2.5, 75%, 55%)" />
  <path d="M 215.69 20.68 A 180 180 0 0 1 232.80 23.01 L 213.12 129.21 A 72 72 0 0 0 206.28 128.27 Z" fill="hsl(7.5, 75%, 55%)" />
  <path d="M 231.26 22.73 A 180 180 0 0 1 248.10 26.55 L 219.24 130.62 A 72 72 0 0 0 212.50 129.09 Z" fill="hsl(12.5, 75%, 55%)" />
  <path d="M 246.59 26.13 A 180 180 0 0 1 263.04 31.40 L 225.21 132.56 A 72 72 0 0 0 218.63 130.45 Z" fill="hsl(17.5, 75%, 55%)" />
  <path d="M 261.56 30.86 A 180 180 0 0 1 277.49 37.53 L 231.00 135.01 A 72 72 0 0 0 224.63 132.34 Z" fill="hsl(22.5, 75%, 55%)" />
  <path d="M 276.07 36.86 A 180 180 0 0 1 291.36 44.91 L 236.54 137.96 A 72 72 0 0 0 230.43 134.75 Z" fill="hsl(27.5, 75%, 55%)" />
  <path d="M 290.00 44.12 A 180 180 0 0 1 304.53 53.46 L 241.81 141.38 A 72 72 0 0 0 236.00 137.65 Z" fill="hsl(32.5, 75%, 55%)" />
  <path d="M 303.24 52.55 A 180 180 0 0 1 316.90 63.13 L 246.76 145.25 A 72 72 0 0 0 241.30 141.02 Z" fill="hsl(37.5, 75%, 55%)" />
  <path d="M 315.70 62.11 A 180 180 0 0 1 328.39 73.84 L 251.35 149.53 A 72 72 0 0 0 246.28 144.84 Z" fill="hsl(42.5, 75%, 55%)" />
  <path d="M 327.28 72.72 A 180 180 0 0 1 338.89 85.51 L 255.56 154.20 A 72 72 0 0 0 250.91 149.09 Z" fill="hsl(47.5, 75%, 55%)" />
  <path d="M 337.89 84.30 A 180 180 0 0 1 348.34 98.05 L 259.34 159.22 A 72 72 0 0 0 255.16 153.72 Z" fill="hsl(52.5, 75%, 55%)" />
  <path d="M 347.45 96.76 A 180 180 0 0 1 356.66 111.36 L 262.67 164.55 A 72 72 0 0 0 258.98 158.70 Z" fill="hsl(57.5, 75%, 55%)" />
  <path d="M 355.88 110.00 A 180 180 0 0 1 363.79 125.36 L 265.52 170.14 A 72 72 0 0 0 262.35 164.00 Z" fill="hsl(62.5, 75%, 55%)" />
  <path d="M 363.14 123.93 A 180 180 0 0 1 369.68 139.91 L 267.87 175.97 A 72 72 0 0 0 265.25 169.57 Z" fill="hsl(67.5, 75%, 55%)" />
  <path d="M 369.14 138.44 A 180 180 0 0 1 374.27 154.93 L 269.71 181.97 A 72 72 0 0 0 267.66 175.37 Z" fill="hsl(72.5, 75%, 55%)" />
  <path d="M 373.87 153.41 A 180 180 0 0 1 377.53 170.29 L 271.01 188.12 A 72 72 0 0 0 269.55 181.37 Z" fill="hsl(77.5, 75%, 55%)" />
  <path d="M 377.27 168.74 A 180 180 0 0 1 379.45 185.88 L 271.78 194.35 A 72 72 0 0 0 270.91 187.50 Z" fill="hsl(82.5, 75%, 55%)" />
  <path d="M 379.32 184.31 A 180 180 0 0 1 379.99 201.57 L 272.00 200.63 A 72 72 0 0 0 271.73 193.72 Z" fill="hsl(87.5, 75%, 55%)" />
  <path d="M 380.00 200.00 A 180 180 0 0 1 379.17 217.25 L 271.67 206.90 A 72 72 0 0 0 272.00 200.00 Z" fill="hsl(92.5, 75%, 55%)" />
  <path d="M 379.32 215.69 A 180 180 0 0 1 376.99 232.80 L 270.79 213.12 A 72 72 0 0 0 271.73 206.28 Z" fill="hsl(97.5, 75%, 55%)" />
  <path d="M 377.27 231.26 A 180 180 0 0 1 373.45 248.10 L 269.38 219.24 A 72 72 0 0 0 270.91 212.50 Z" fill="hsl(102.5, 75%, 55%)" />
  <path d="M 373.87 246.59 A 180 180 0 0 1 368.60 263.04 L 267.44 225.21 A 72 72 0 0 0 269.55 218.63 Z" fill="hsl(107.5, 75%, 55%)" />
  <path d="M 369.14 261.56 A 180 180 0 0 1 362.47 277.49 L 264.99 231.00 A 72 72 0 0 0 267.66 224.63 Z" fill="hsl(112.5, 75%, 55%)" />
  <path d="M 363.14 276.07 A 180 180 0 0 1 355.09 291.36 L 262.04 236.54 A 72 72 0 0 0 265.25 230.43 Z" fill="hsl(117.5, 75%, 55%)" />
  <path d="M 355.88 290.00 A 180 180 0 0 1 346.54 304.53 L 258.62 241.81 A 72 72 0 0 0 262.35 236.00 Z" fill="hsl(122.5, 75%, 55%)" />
  <path d="M 347.45 303.24 A 180 180 0 0 1 336.87 316.90 L 254.75 246.76 A 72 72 0 0 0 258.98 241.30 Z" fill="hsl(127.5, 75%, 55%)" />
  <path d="M 337.89 315.70 A 180 180 0 0 1 326.16 328.39 L 250.47 251.35 A 72 72 0 0 0 255.16 246.28 Z" fill="hsl(132.5, 75%, 55%)" />
  <path d="M 327.28 327.28 A 180 180 0 0 1 314.49 338.89 L 245.80 255.56 A 72 72 0 0 0 250.91 250.91 Z" fill="hsl(137.5, 75%, 55%)" />
  <path d="M 315.70 337.89 A 180 180 0 0 1 301.95 348.34 L 240.78 259.34 A 72 72 0 0 0 246.28 255.16 Z" fill="hsl(142.5, 75%, 55%)" />
  <path d="M 303.24 347.45 A 180 180 0 0 1 288.64 356.66 L 235.45 262.67 A 72 72 0 0 0 241.30 258.98 Z" fill="hsl(147.5, 75%, 55%)" />
  <path d="M 290.00 355.88 A 180 180 0 0 1 274.64 363.79 L 229.86 265.52 A 72 72 0 0 0 236.00 262.35 Z" fill="hsl(152.5, 75%, 55%)" />
  <path d="M 276.07 363.14 A 180 180 0 0 1 260.09 369.68 L 224.03 267.87 A 72 72 0 0 0 230.43 265.25 Z" fill="hsl(157.5, 75%, 55%)" />
  <path d="M 261.56 369.14 A 180 180 0 0 1 245.07 374.27 L 218.03 269.71 A 72 72 0 0 0 224.63 267.66 Z" fill="hsl(162.5, 75%, 55%)" />
  <path d="M 246.59 373.87 A 180 180 0 0 1 229.71 377.53 L 211.88 271.01 A 72 72 0 0 0 218.63 269.55 Z" fill="hsl(167.5, 75%, 55%)" />
  <path d="M 231.26 377.27 A 180 180 0 0 1 214.12 379.45 L 205.65 271.78 A 72 72 0 0 0 212.50 270.91 Z" fill="hsl(172.5, 75%, 55%)" />
  <path d="M 215.69 379.32 A 180 180 0 0 1 198.43 379.99 L 199.37 272.00 A 72 72 0 0 0 206.28 271.73 Z" fill="hsl(177.5, 75%, 55%)" />
  <path d="M 200.00 380.00 A 180 180 0 0 1 182.75 379.17 L 193.10 271.67 A 72 72 0 0 0 200.00 272.00 Z" fill="hsl(182.5, 75%, 55%)" />
  <path d="M 184.31 379.32 A 180 180 0 0 1 167.20 376.99 L 186.88 270.79 A 72 72 0 0 0 193.72 271.73 Z" fill="hsl(187.5, 75%, 55%)" />
  <path d="M 168.74 377.27 A 180 180 0 0 1 151.90 373.45 L 180.76 269.38 A 72 72 0 0 0 187.50 270.91 Z" fill="hsl(192.5, 75%, 55%)" />
  <path d="M 153.41 373.87 A 180 180 0 0 1 136.96 368.60 L 174.79 267.44 A 72 72 0 0 0 181.37 269.55 Z" fill="hsl(197.5, 75%, 55%)" />
  <path d="M 138.44 369.14 A 180 180 0 0 1 122.51 362.47 L 169.00 264.99 A 72 72 0 0 0 175.37 267.66 Z" fill="hsl(202.5, 75%, 55%)" />
  <path d="M 123.93 363.14 A 180 180 0 0 1 108.64 355.09 L 163.46 262.04 A 72 72 0 0 0 169.57 265.25 Z" fill="hsl(207.5, 75%, 55%)" />
  <path d="M 110.00 355.88 A 180 180 0 0 1 95.47 346.54 L 158.19 258.62 A 72 72 0 0 0 164.00 262.35 Z" fill="hsl(212.5, 75%, 55%)" />
  <path d="M 96.76 347.45 A 180 180 0 0 1 83.10 336.87 L 153.24 254.75 A 72 72 0 0 0 158.70 258.98 Z" fill="hsl(217.5, 75%, 55%)" />
  <path d="M 84.30 337.89 A 180 180 0 0 1 71.61 326.16 L 148.65 250.47 A 72 72 0 0 0 153.72 255.16 Z" fill="hsl(222.5, 75%, 55%)" />
  <path d="M 72.72 327.28 A 180 180 0 0 1 61.11 314.49 L 144.44 245.80 A 72 72 0 0 0 149.09 250.91 Z" fill="hsl(227.5, 75%, 55%)" />
  <path d="M 62.11 315.70 A 180 180 0 0 1 51.66 301.95 L 140.66 240.78 A 72 72 0 0 0 144.84 246.28 Z" fill="hsl(232.5, 75%, 55%)" />
  <path d="M 52.55 303.24 A 180 180 0 0 1 43.34 288.64 L 137.33 235.45 A 72 72 0 0 0 141.02 241.30 Z" fill="hsl(237.5, 75%, 55%)" />
  <path d="M 44.12 290.00 A 180 180 0 0 1 36.21 274.64 L 134.48 229.86 A 72 72 0 0 0 137.65 236.00 Z" fill="hsl(242.5, 75%, 55%)" />
  <path d="M 36.86 276.07 A 180 180 0 0 1 30.32 260.09 L 132.13 224.03 A 72 72 0 0 0 134.75 230.43 Z" fill="hsl(247.5, 75%, 55%)" />
  <path d="M 30.86 261.56 A 180 180 0 0 1 25.73 245.07 L 130.29 218.03 A 72 72 0 0 0 132.34 224.63 Z" fill="hsl(252.5, 75%, 55%)" />
  <path d="M 26.13 246.59 A 180 180 0 0 1 22.47 229.71 L 128.99 211.88 A 72 72 0 0 0 130.45 218.63 Z" fill="hsl(257.5, 75%, 55%)" />
  <path d="M 22.73 231.26 A 180 180 0 0 1 20.55 214.12 L 128.22 205.65 A 72 72 0 0 0 129.09 212.50 Z" fill="hsl(262.5, 75%, 55%)" />
  <path d="M 20.68 215.69 A 180 180 0 0 1 20.01 198.43 L 128.00 199.37 A 72 72 0 0 0 128.27 206.28 Z" fill="hsl(267.5, 75%, 55%)" />
  <path d="M 20.00 200.00 A 180 180 0 0 1 20.83 182.75 L 128.33 193.10 A 72 72 0 0 0 128.00 200.00 Z" fill="hsl(272.5, 75%, 55%)" />
  <path d="M 20.68 184.31 A 180 180 0 0 1 23.01 167.20 L 129.21 186.88 A 72 72 0 0 0 128.27 193.72 Z" fill="hsl(277.5, 75%, 55%)" />
  <path d="M 22.73 168.74 A 180 180 0 0 1 26.55 151.90 L 130.62 180.76 A 72 72 0 0 0 129.09 187.50 Z" fill="hsl(282.5, 75%, 55%)" />
  <path d="M 26.13 153.41 A 180 180 0 0 1 31.40 136.96 L 132.56 174.79 A 72 72 0 0 0 130.45 181.37 Z" fill="hsl(287.5, 75%, 55%)" />
  <path d="M 30.86 138.44 A 180 180 0 0 1 37.53 122.51 L 135.01 169.00 A 72 72 0 0 0 132.34 175.37 Z" fill="hsl(292.5, 75%, 55%)" />
  <path d="M 36.86 123.93 A 180 180 0 0 1 44.91 108.64 L 137.96 163.46 A 72 72 0 0 0 134.75 169.57 Z" fill="hsl(297.5, 75%, 55%)" />
  <path d="M 44.12 110.00 A 180 180 0 0 1 53.46 95.47 L 141.38 158.19 A 72 72 0 0 0 137.65 164.00 Z" fill="hsl(302.5, 75%, 55%)" />
  <path d="M 52.55 96.76 A 180 180 0 0 1 63.13 83.10 L 145.25 153.24 A 72 72 0 0 0 141.02 158.70 Z" fill="hsl(307.5, 75%, 55%)" />
  <path d="M 62.11 84.30 A 180 180 0 0 1 73.84 71.61 L 149.53 148.65 A 72 72 0 0 0 144.84 153.72 Z" fill="hsl(312.5, 75%, 55%)" />
  <path d="M 72.72 72.72 A 180 180 0 0 1 85.51 61.11 L 154.20 144.44 A 72 72 0 0 0 149.09 149.09 Z" fill="hsl(317.5, 75%, 55%)" />
  <path d="M 84.30 62.11 A 180 180 0 0 1 98.05 51.66 L 159.22 140.66 A 72 72 0 0 0 153.72 144.84 Z" fill="hsl(322.5, 75%, 55%)" />
  <path d="M 96.76 52.55 A 180 180 0 0 1 111.36 43.34 L 164.55 137.33 A 72 72 0 0 0 158.70 141.02 Z" fill="hsl(327.5, 75%, 55%)" />
  <path d="M 110.00 44.12 A 180 180 0 0 1 125.36 36.21 L 170.14 134.48 A 72 72 0 0 0 164.00 137.65 Z" fill="hsl(332.5, 75%, 55%)" />
  <path d="M 123.93 36.86 A 180 180 0 0 1 139.91 30.32 L 175.97 132.13 A 72 72 0 0 0 169.57 134.75 Z" fill="hsl(337.5, 75%, 55%)" />
  <path d="M 138.44 30.86 A 180 180 0 0 1 154.93 25.73 L 181.97 130.29 A 72 72 0 0 0 175.37 132.34 Z" fill="hsl(342.5, 75%, 55%)" />
  <path d="M 153.41 26.13 A 180 180 0 0 1 170.29 22.47 L 188.12 128.99 A 72 72 0 0 0 181.37 130.45 Z" fill="hsl(347.5, 75%, 55%)" />
  <path d="M 168.74 22.73 A 180 180 0 0 1 185.88 20.55 L 194.35 128.22 A 72 72 0 0 0 187.50 129.09 Z" fill="hsl(352.5, 75%, 55%)" />
  <path d="M 184.31 20.68 A 180 180 0 0 1 201.57 20.01 L 200.63 128.00 A 72 72 0 0 0 193.72 128.27 Z" fill="hsl(357.5, 75%, 55%)" />
  <circle cx="200" cy="200" r="70" fill="white" />
  <text x="200" y="192" text-anchor="middle" dominant-baseline="middle" font-size="18" font-weight="600" fill="#334155" font-family="ui-sans-serif,sans-serif">HSL</text>
  <text x="200" y="214" text-anchor="middle" dominant-baseline="middle" font-size="10" fill="#94a3b8" font-family="ui-monospace,monospace">0° – 360°</text>
  <text x="200.00" y="-2.00" text-anchor="middle" dominant-baseline="middle" font-size="13" fill="#94a3b8" font-family="ui-monospace,monospace">0°</text>
  <text x="374.94" y="99.00" text-anchor="middle" dominant-baseline="middle" font-size="13" fill="#94a3b8" font-family="ui-monospace,monospace">60°</text>
  <text x="374.94" y="301.00" text-anchor="middle" dominant-baseline="middle" font-size="13" fill="#94a3b8" font-family="ui-monospace,monospace">120°</text>
  <text x="200.00" y="402.00" text-anchor="middle" dominant-baseline="middle" font-size="13" fill="#94a3b8" font-family="ui-monospace,monospace">180°</text>
  <text x="25.06" y="301.00" text-anchor="middle" dominant-baseline="middle" font-size="13" fill="#94a3b8" font-family="ui-monospace,monospace">240°</text>
  <text x="25.06" y="99.00" text-anchor="middle" dominant-baseline="middle" font-size="13" fill="#94a3b8" font-family="ui-monospace,monospace">300°</text>
</svg>